# xmcd
#
# Track frame offsets:
#	150
#	15206
#	30630
#	49845
#	70536
#	83721
#	101779
#	118684
#	131855
#	147783
#	164549
#	180413
#
# Disc length: 2598 seconds
#
# Revision: 4
# Processed by: cddbd v1.5.2PL0 Copyright (c) Steve Scherf et al.
# Submitted via: audiograbber 1.83.01
#
DISCID=980a240c
DTITLE=Brendan Benson - The Alternative To Love
DYEAR=2005
DGENRE=Pop
TTITLE0=Spit It Out
TTITLE1=Cold Hands (Warm Heart)
TTITLE2=Feel Like Myself
TTITLE3=Alternative To Love
TTITLE4=The Pledge
TTITLE5=Them And Me
TTITLE6=Biggest Fan
TTITLE7=Flesh And Bone
TTITLE8=Get It Together
TTITLE9=Gold Into Straw
TTITLE10=What I'm Looking For
TTITLE11=Between Us
EXTD=YEAR: 2005
EXTT0=
EXTT1=
EXTT2=
EXTT3=
EXTT4=
EXTT5=
EXTT6=
EXTT7=
EXTT8=
EXTT9=
EXTT10=
EXTT11=
PLAYORDER=
